<?xml version="1.0" standalone="no"?>
<!DOCTYPE svg PUBLIC "-//W3C//DTD SVG 20010904//EN"
 "http://www.w3.org/TR/2001/REC-SVG-20010904/DTD/svg10.dtd">
<svg version="1.0" xmlns="http://www.w3.org/2000/svg"
 width="4079.000000pt" height="1756.000000pt" viewBox="0 0 4079.000000 1756.000000"
 preserveAspectRatio="xMidYMid meet">

<g transform="translate(0.000000,1756.000000) scale(0.100000,-0.100000)"
fill="#000000" stroke="none">
<path d="M7992 15238 c-18 -30 -560 -967 -1094 -1891 -120 -208 -218 -382
-218 -386 0 -3 28 -34 63 -68 l62 -62 85 55 c249 161 630 357 920 474 153 62
475 171 600 205 l65 17 43 76 c56 102 115 179 209 275 110 112 189 168 335
240 70 34 126 67 124 72 -1 6 -52 238 -111 518 l-109 507 -477 0 -477 0 -20
-32z"/>
<path d="M9146 13926 c-97 -52 -219 -148 -275 -214 l-41 -50 63 13 c54 12 304
49 377 57 l26 3 -25 118 c-13 64 -29 117 -35 117 -6 0 -47 -20 -90 -44z"/>
<path d="M12535 12535 l-179 -445 514 -515 c283 -283 517 -511 521 -507 16 17
472 816 472 826 0 19 -222 398 -251 430 -42 44 -245 213 -377 312 -150 113
-497 344 -516 344 -3 0 -85 -200 -184 -445z"/>
<path d="M6501 12659 c-23 -39 -41 -73 -41 -75 0 -2 29 19 66 47 l65 52 -22
23 c-12 13 -24 24 -25 24 -1 0 -21 -32 -43 -71z"/>
<path d="M11920 11012 c-178 -444 -335 -831 -347 -861 l-24 -53 -41 58 c-22
33 -42 60 -43 62 -2 2 -20 -29 -42 -70 -175 -335 -524 -583 -912 -649 -99 -17
-321 -15 -423 5 -173 33 -343 102 -484 196 -49 33 -151 124 -271 243 -106 105
-195 189 -197 186 -4 -3 -542 -1333 -637 -1571 l-19 -48 1719 0 1719 0 114
198 c63 108 168 292 234 407 66 116 315 547 553 959 l433 749 -499 499 c-274
274 -500 498 -503 498 -3 0 -151 -364 -330 -808z"/>
<path d="M10426 11237 c-11 -30 -16 -75 -16 -150 0 -100 -1 -107 -20 -107 -17
0 -20 -7 -20 -40 0 -33 -3 -40 -20 -40 -13 0 -20 -7 -20 -20 0 -13 -7 -20 -20
-20 -17 0 -20 -7 -20 -45 0 -39 -3 -45 -21 -45 -24 0 -69 -43 -69 -66 0 -7 -9
-14 -20 -14 -13 0 -20 -7 -20 -20 0 -13 -7 -20 -20 -20 -13 0 -20 -7 -20 -20
0 -17 -7 -20 -42 -20 -37 0 -45 -4 -60 -31 -10 -17 -18 -37 -18 -45 0 -11 -17
-14 -74 -14 -66 0 -75 -2 -81 -20 -4 -13 -15 -20 -30 -20 -15 0 -26 -7 -30
-20 -3 -11 -13 -20 -21 -20 -8 0 -14 9 -14 20 0 15 -7 20 -25 20 -21 0 -30 -9
-45 -42 -14 -33 -19 -37 -19 -20 -1 27 -27 29 -36 2 -3 -11 -15 -20 -26 -20
-12 0 -19 7 -19 20 0 38 -38 24 -59 -22 -15 -33 -20 -38 -20 -20 -1 32 -20 27
-36 -10 l-14 -33 -1 33 c0 25 -4 32 -20 32 -13 0 -20 -7 -20 -20 0 -13 -7 -20
-20 -20 -11 0 -26 -12 -34 -29 l-15 -28 182 -180 c237 -233 342 -300 563 -355
129 -32 334 -31 458 1 197 51 333 128 472 266 51 49 113 124 140 164 51 80
114 219 114 252 0 62 -568 639 -786 799 l-41 30 -17 -43z"/>
<path d="M30096 10690 c-105 -32 -161 -129 -160 -280 1 -141 40 -203 214 -335
175 -134 210 -185 210 -302 0 -75 -22 -134 -61 -170 -31 -28 -102 -46 -148
-38 -94 16 -140 80 -148 207 l-6 78 -35 0 -34 0 4 -89 c8 -168 82 -257 221
-268 172 -14 272 76 284 258 10 138 -37 229 -167 329 -145 110 -193 155 -224
210 -41 73 -43 169 -6 245 44 88 142 119 230 72 55 -29 83 -80 88 -164 l4 -63
41 0 40 0 -7 64 c-14 139 -68 218 -167 246 -41 12 -133 12 -173 0z"/>
<path d="M32120 10689 c-82 -25 -140 -100 -159 -203 -15 -79 -14 -704 0 -781
27 -148 100 -210 249 -210 75 0 91 3 132 28 101 59 118 113 118 384 l0 203
-115 0 -115 0 0 -35 0 -35 81 0 81 0 -4 -172 c-3 -163 -4 -176 -28 -217 -33
-59 -79 -86 -150 -86 -71 0 -117 27 -150 86 l-25 44 0 400 0 400 25 45 c29 52
92 90 150 90 58 0 121 -38 150 -90 19 -36 25 -63 28 -137 l4 -93 35 0 35 0 -4
108 c-3 96 -7 113 -33 162 -43 78 -101 112 -198 116 -39 2 -88 -1 -107 -7z"/>
<path d="M38387 10686 c-88 -33 -137 -97 -158 -210 -6 -37 -9 -190 -7 -419 3
-310 6 -368 21 -405 25 -64 53 -99 105 -129 42 -25 57 -28 137 -28 81 0 95 3
138 28 26 15 58 45 71 65 50 77 51 91 51 507 0 302 -3 399 -14 430 -38 113
-109 166 -230 172 -49 2 -90 -2 -114 -11z m199 -87 c19 -11 45 -40 57 -63 22
-40 22 -47 22 -441 0 -394 0 -401 -22 -441 -32 -60 -83 -89 -158 -89 -76 0
-121 25 -155 86 l-25 44 0 400 c0 392 0 401 22 441 26 48 41 62 90 80 49 18
125 11 169 -17z"/>
<path d="M16260 10095 l0 -595 40 0 40 0 0 280 0 280 185 0 185 0 0 -280 0
-280 40 0 40 0 0 595 0 595 -40 0 -40 0 0 -280 0 -280 -185 0 -185 0 0 280 0
280 -40 0 -40 0 0 -595z"/>
<path d="M17745 10668 c-3 -13 -59 -270 -125 -573 -66 -302 -122 -560 -125
-572 -5 -21 -2 -23 30 -23 20 0 37 6 40 13 2 6 16 65 30 130 l27 117 184 0
c139 0 186 -3 189 -12 2 -7 15 -66 30 -130 l27 -118 39 0 c34 0 40 3 35 18 -2
9 -62 277 -133 595 l-128 577 -57 0 c-51 0 -58 -2 -63 -22z m146 -449 c44
-195 82 -362 85 -371 5 -17 -8 -18 -169 -18 l-174 0 64 283 c34 155 72 324 84
375 12 51 23 91 25 89 3 -2 41 -163 85 -358z"/>
<path d="M18840 10096 l0 -596 40 0 40 0 0 266 0 266 113 -3 c130 -5 168 -20
203 -83 19 -34 22 -58 26 -220 5 -210 10 -226 67 -226 l38 0 -13 52 c-9 32
-14 107 -14 193 0 77 -5 156 -10 176 -16 56 -51 101 -97 123 -42 21 -55 36
-30 36 26 0 88 52 109 93 21 38 23 55 23 197 0 147 -1 158 -26 205 -18 35 -39
59 -74 80 -48 30 -49 30 -222 33 l-173 4 0 -596z m330 502 c73 -37 90 -83 90
-238 -1 -211 -34 -248 -232 -258 l-108 -5 0 262 0 261 103 0 c87 0 110 -4 147
-22z"/>
<path d="M20080 10095 l0 -597 178 4 c158 3 181 5 217 25 52 28 79 57 107 118
23 50 23 54 23 450 0 396 0 400 -23 450 -28 61 -55 90 -107 118 -36 20 -59 22
-217 25 l-178 4 0 -597z m363 496 c21 -12 48 -42 60 -65 22 -40 22 -47 22
-431 l0 -390 -25 -44 c-40 -72 -74 -85 -217 -90 l-123 -3 0 527 0 527 123 -3
c107 -4 127 -7 160 -28z"/>
<path d="M21304 10663 c8 -39 186 -1144 186 -1155 0 -4 24 -8 54 -8 43 0 56 4
60 18 3 9 39 217 81 462 42 245 79 452 82 460 3 8 36 -167 73 -390 37 -223 73
-438 80 -478 l12 -73 51 3 52 3 92 575 c51 316 92 583 93 593 0 13 -8 17 -35
17 -19 0 -35 -3 -35 -7 1 -22 -166 -1043 -170 -1043 -3 0 -41 234 -85 520
l-80 520 -42 0 c-36 0 -43 -4 -48 -22 -2 -13 -39 -237 -80 -498 -81 -508 -85
-533 -90 -528 -2 2 -43 240 -91 531 l-87 527 -39 0 c-38 0 -39 -1 -34 -27z"/>
<path d="M23145 10668 c-3 -13 -59 -270 -125 -573 -66 -302 -122 -560 -125
-572 -5 -21 -2 -23 30 -23 20 0 37 6 40 13 2 6 16 65 30 130 l27 117 184 0
c139 0 186 -3 189 -12 2 -7 15 -66 30 -130 l27 -118 39 0 c34 0 40 3 35 18 -2
9 -62 277 -133 595 l-128 577 -57 0 c-51 0 -58 -2 -63 -22z m146 -449 c44
-195 82 -362 85 -371 5 -17 -8 -18 -169 -18 l-174 0 64 283 c34 155 72 324 84
375 12 51 23 91 25 89 3 -2 41 -163 85 -358z"/>
<path d="M24240 10096 l0 -596 40 0 40 0 0 266 0 266 113 -3 c130 -5 168 -20
203 -83 19 -34 22 -58 26 -220 5 -210 10 -226 67 -226 l38 0 -13 52 c-9 32
-14 107 -14 193 0 77 -5 156 -10 176 -16 56 -51 101 -97 123 -42 21 -55 36
-30 36 26 0 88 52 109 93 21 38 23 55 23 197 0 147 -1 158 -26 205 -18 35 -39
59 -74 80 -48 30 -49 30 -222 33 l-173 4 0 -596z m330 502 c73 -37 90 -83 90
-238 -1 -211 -34 -248 -232 -258 l-108 -5 0 262 0 261 103 0 c87 0 110 -4 147
-22z"/>
<path d="M25480 10095 l0 -595 235 0 235 0 0 35 0 35 -195 0 -195 0 0 250 0
250 160 0 160 0 0 35 0 35 -160 0 -160 0 0 240 0 240 195 0 195 0 0 35 0 35
-235 0 -235 0 0 -595z"/>
<path d="M27520 10095 l0 -597 178 4 c158 3 181 5 217 25 52 28 79 57 107 118
23 50 23 54 23 450 0 396 0 400 -23 450 -28 61 -55 90 -107 118 -36 20 -59 22
-217 25 l-178 4 0 -597z m363 496 c21 -12 48 -42 60 -65 22 -40 22 -47 22
-431 l0 -390 -25 -44 c-40 -72 -74 -85 -217 -90 l-123 -3 0 527 0 527 123 -3
c107 -4 127 -7 160 -28z"/>
<path d="M28760 10095 l0 -595 235 0 235 0 0 35 0 35 -195 0 -195 0 0 250 0
250 160 0 160 0 0 35 0 35 -160 0 -160 0 0 240 0 240 195 0 195 0 0 35 0 35
-235 0 -235 0 0 -595z"/>
<path d="M31160 10095 l0 -595 40 0 40 0 0 595 0 595 -40 0 -40 0 0 -595z"/>
<path d="M33180 10096 l0 -596 35 0 35 0 2 521 3 522 149 -424 c82 -233 164
-468 184 -521 l34 -98 44 0 44 0 0 595 0 595 -35 0 -35 0 -2 -497 -3 -498
-176 495 -176 495 -52 3 -51 3 0 -595z"/>
<path d="M34675 10668 c-3 -13 -59 -270 -125 -573 -66 -302 -122 -560 -125
-572 -5 -21 -2 -23 30 -23 20 0 37 6 40 13 2 6 16 65 30 130 l27 117 184 0
c139 0 186 -3 189 -12 2 -7 15 -66 30 -130 l27 -118 39 0 c34 0 40 3 35 18 -2
9 -62 277 -133 595 l-128 577 -57 0 c-51 0 -58 -2 -63 -22z m146 -449 c44
-195 82 -362 85 -371 5 -17 -8 -18 -169 -18 l-174 0 64 283 c34 155 72 324 84
375 12 51 23 91 25 89 3 -2 41 -163 85 -358z"/>
<path d="M35720 10655 l0 -35 120 0 120 0 0 -560 0 -560 40 0 40 0 0 560 0
560 120 0 120 0 0 35 0 35 -280 0 -280 0 0 -35z"/>
<path d="M36980 10095 l0 -595 40 0 40 0 0 280 0 280 185 0 185 0 0 -280 0
-280 40 0 40 0 0 595 0 595 -40 0 -40 0 0 -280 0 -280 -185 0 -185 0 0 280 0
280 -40 0 -40 0 0 -595z"/>
<path d="M39460 10096 l0 -596 35 0 35 0 2 521 3 522 149 -424 c82 -233 164
-468 184 -521 l34 -98 44 0 44 0 0 595 0 595 -35 0 -35 0 -2 -497 -3 -498
-176 495 -176 495 -52 3 -51 3 0 -595z"/>
<path d="M9305 10340 c10 -11 20 -20 22 -20 1 0 3 9 3 20 0 14 -7 20 -22 20
-20 0 -21 -1 -3 -20z"/>
</g>
</svg>
